<?xml version="1.0" encoding="UTF-8" standalone="no"?>
<!DOCTYPE svg PUBLIC "-//W3C//DTD SVG 1.1//EN" "http://www.w3.org/Graphics/SVG/1.1/DTD/svg11.dtd">
<svg xmlns="http://www.w3.org/2000/svg" version="1.1" viewBox="0.00 0.00 1104.00 935.00">
<g stroke-width="2.00" fill="none" stroke-linecap="butt">
<path stroke="#6dc9f4" vector-effect="non-scaling-stroke" d="
  M 110.74 930.87
  Q 111.47 932.35 110.98 935.00"
/>
<path stroke="#6670f1" vector-effect="non-scaling-stroke" d="
  M 933.88 935.00
  L 933.88 934.31
  Q 933.88 934.11 933.70 934.20
  Q 933.38 934.35 933.37 934.00
  Q 933.36 933.63 933.72 933.63
  L 935.44 933.63
  Q 936.02 933.63 935.90 933.06
  L 935.57 931.49
  Q 935.47 931.02 934.98 931.01
  L 928.46 930.88"
/>
<path stroke="#6aabf3" vector-effect="non-scaling-stroke" d="
  M 378.45 930.88
  L 383.37 931.25
  Q 383.90 931.29 384.06 931.80
  Q 384.48 933.18 383.62 934.13
  Q 383.19 934.62 383.84 934.58
  Q 384.81 934.53 385.00 935.00"
/>
<path stroke="#6893f3" vector-effect="non-scaling-stroke" d="
  M 620.71 930.88
  L 639.60 931.02
  Q 640.10 931.03 640.43 931.40
  Q 641.02 932.09 640.92 933.07
  Q 640.86 933.72 640.22 933.62
  Q 639.94 933.58 639.67 933.71
  Q 639.15 933.96 639.65 934.24
  Q 641.02 935.02 642.88 935.00"
/>
</g>
<path fill="#69a0f3" d="
  M 553.61 0.00
  L 554.41 0.00
  L 653.75 172.09
  A 0.56 0.56 0.0 0 1 653.26 172.93
  L 649.79 172.91
  A 1.39 1.37 74.8 0 1 648.60 172.22
  L 554.29 8.88
  A 0.33 0.33 0.0 0 0 553.72 8.88
  L 459.46 172.13
  Q 459.00 172.94 458.06 172.93
  L 454.72 172.90
  A 0.54 0.54 0.0 0 1 454.26 172.09
  L 553.61 0.00
  Z"
/>
<path fill="#69a0f3" d="
  M 504.48 423.02
  L 447.02 423.02
  A 0.81 0.80 -10.7 0 1 446.27 422.51
  Q 427.28 374.01 446.28 325.86
  Q 446.48 325.36 447.01 325.36
  L 505.02 325.36
  A 0.17 0.17 0.0 0 0 505.19 325.19
  L 505.19 267.24
  Q 505.19 266.65 505.73 266.44
  Q 554.24 247.45 602.46 266.53
  A 0.51 0.49 -80.0 0 1 602.78 267.00
  L 602.78 324.82
  Q 602.78 325.36 603.32 325.36
  L 661.00 325.36
  Q 661.47 325.36 661.64 325.80
  Q 680.78 374.13 661.67 422.54
  Q 661.48 423.02 660.97 423.02
  L 603.25 423.02
  Q 602.78 423.02 602.78 423.50
  L 602.78 481.20
  Q 602.78 481.71 602.31 481.89
  Q 553.86 500.96 505.45 481.82
  Q 505.19 481.71 505.19 481.44
  L 505.19 423.73
  Q 505.19 423.02 504.48 423.02
  Z
  M 553.99 325.92
  L 553.98 344.29
  Q 553.98 344.81 553.46 344.81
  L 460.74 344.80
  A 0.45 0.45 0.0 0 0 460.31 345.13
  Q 452.32 373.66 460.19 402.93
  Q 460.35 403.53 460.96 403.53
  L 504.71 403.53
  Q 505.20 403.53 505.20 403.04
  C 505.26 397.48 504.74 391.85 506.10 386.49
  C 508.63 376.56 516.10 368.82 525.91 365.69
  Q 529.90 364.42 536.08 364.44
  Q 553.27 364.48 572.34 364.46
  C 578.33 364.46 583.31 360.87 583.31 354.47
  Q 583.28 316.53 583.29 280.83
  Q 583.29 280.54 583.01 280.46
  Q 553.96 272.56 525.23 280.43
  Q 524.65 280.59 524.65 281.20
  L 524.65 325.00
  A 0.36 0.36 0.0 0 0 525.01 325.36
  L 553.42 325.36
  Q 553.99 325.36 553.99 325.92
  Z
  M 554.73 403.53
  L 647.07 403.53
  A 0.74 0.74 0.0 0 0 647.78 402.99
  Q 655.68 373.92 647.68 345.13
  Q 647.59 344.80 647.25 344.80
  L 603.31 344.80
  Q 602.67 344.80 602.70 345.44
  Q 602.90 350.45 602.74 355.33
  C 602.20 371.45 589.63 383.75 573.48 383.88
  Q 555.37 384.03 537.90 383.83
  C 532.61 383.76 528.10 384.41 525.56 389.66
  Q 524.57 391.70 524.59 396.89
  Q 524.74 433.67 524.62 467.43
  A 0.47 0.47 0.0 0 0 524.96 467.88
  Q 553.64 475.83 582.91 467.95
  A 0.52 0.51 82.8 0 0 583.29 467.45
  L 583.29 423.53
  Q 583.29 423.02 582.78 423.02
  L 554.51 423.02
  Q 554.00 423.02 554.00 422.51
  L 554.00 404.27
  Q 554.00 403.53 554.73 403.53
  Z"
/>
<circle fill="#69a0f3" cx="549.09" cy="300.91" r="9.62"/>
<circle fill="#69a0f3" cx="558.86" cy="447.46" r="9.62"/>
<path fill="#69a0f3" d="
  M 599.57 594.10
  C 603.87 593.45 606.39 590.05 606.94 585.90
  Q 607.92 578.35 607.56 569.54
  Q 607.52 568.62 608.43 568.62
  L 619.47 568.62
  Q 619.96 568.62 619.98 569.11
  C 620.63 582.93 619.67 601.97 601.77 604.31
  Q 596.52 605.00 591.14 604.38
  C 573.50 602.36 570.91 585.68 570.85 571.39
  Q 570.78 551.79 571.01 536.28
  Q 571.08 531.76 572.29 526.20
  C 574.48 516.10 580.65 509.93 590.97 508.77
  C 605.05 507.18 616.73 511.12 619.29 526.60
  Q 620.45 533.59 619.98 542.38
  Q 619.95 543.00 619.33 543.00
  L 608.04 543.00
  A 0.43 0.43 0.0 0 1 607.61 542.56
  Q 607.77 535.93 607.27 528.47
  C 606.68 519.68 600.82 517.86 593.09 518.89
  C 588.64 519.49 585.73 522.94 585.04 527.20
  Q 584.10 533.04 584.10 539.62
  Q 584.12 560.45 584.17 578.37
  C 584.20 588.61 587.51 595.93 599.57 594.10
  Z"
/>
<path fill="#6bb5f3" d="
  M 287.37 579.80
  L 268.65 579.81
  A 0.33 0.33 0.0 0 0 268.33 580.08
  L 263.88 603.37
  A 0.33 0.33 0.0 0 1 263.56 603.64
  L 251.92 603.65
  A 0.33 0.33 0.0 0 1 251.59 603.25
  L 271.49 509.50
  A 0.33 0.33 0.0 0 1 271.82 509.24
  L 283.97 509.24
  A 0.33 0.33 0.0 0 1 284.30 509.50
  L 304.31 603.23
  A 0.33 0.33 0.0 0 1 303.99 603.63
  L 292.25 603.65
  A 0.33 0.33 0.0 0 1 291.92 603.38
  L 287.70 580.07
  A 0.33 0.33 0.0 0 0 287.37 579.80
  Z
  M 285.83 570.04
  L 278.14 528.76
  Q 277.96 527.74 277.77 528.76
  L 270.18 570.05
  Q 270.10 570.49 270.55 570.49
  L 285.46 570.49
  A 0.38 0.38 0.0 0 0 285.83 570.04
  Z"
/>
<path fill="#6bb5f3" d="
  M 326.35 542.81
  C 330.83 538.62 335.94 535.58 342.19 535.36
  C 350.59 535.05 352.72 542.80 352.72 549.52
  Q 352.75 577.10 352.74 602.98
  Q 352.74 603.64 352.07 603.64
  L 340.95 603.64
  Q 340.24 603.64 340.24 602.93
  Q 340.27 577.22 340.24 552.24
  C 340.23 541.62 331.10 544.74 326.15 549.31
  Q 325.76 549.67 325.76 550.21
  L 325.76 602.94
  Q 325.76 603.64 325.06 603.64
  L 313.98 603.65
  Q 313.31 603.65 313.31 602.98
  L 313.31 509.84
  Q 313.31 509.24 313.91 509.24
  L 325.25 509.24
  Q 325.76 509.24 325.76 509.75
  L 325.76 542.56
  Q 325.76 543.37 326.35 542.81
  Z"
/>
<path fill="#69a0f3" d="
  M 519.77 539.74
  L 519.77 509.74
  Q 519.77 509.24 520.26 509.24
  L 531.74 509.24
  Q 532.25 509.24 532.25 509.74
  L 532.25 603.07
  Q 532.25 603.64 531.68 603.64
  L 520.45 603.65
  Q 519.75 603.65 519.76 602.95
  L 519.77 600.21
  Q 519.78 599.19 519.07 599.93
  Q 513.15 606.16 504.46 604.08
  C 495.46 601.94 492.83 592.62 492.37 584.62
  Q 491.68 572.53 492.14 560.11
  C 492.44 552.00 493.92 538.72 503.61 536.03
  C 509.72 534.34 514.60 535.87 519.06 540.05
  Q 519.77 540.70 519.77 539.74
  Z
  M 504.62 582.87
  Q 504.72 587.50 506.18 590.95
  C 508.57 596.60 515.16 595.12 519.31 592.56
  Q 519.76 592.28 519.76 591.75
  L 519.77 548.53
  Q 519.77 548.06 519.39 547.79
  C 515.65 545.06 508.66 543.18 506.31 548.61
  Q 504.67 552.41 504.59 556.50
  Q 504.33 569.79 504.62 582.87
  Z"
/>
<path fill="#6786f2" d="
  M 707.73 539.73
  L 707.73 509.75
  A 0.52 0.51 0.0 0 1 708.25 509.24
  L 719.57 509.24
  Q 720.15 509.24 720.15 509.82
  L 720.15 602.99
  Q 720.15 603.64 719.51 603.64
  L 708.32 603.65
  Q 707.73 603.65 707.73 603.07
  L 707.73 600.07
  Q 707.73 599.14 707.10 599.82
  Q 701.14 606.18 692.40 604.08
  C 680.96 601.34 680.00 587.54 679.97 577.97
  C 679.93 568.00 679.36 558.27 681.48 548.76
  C 682.77 542.99 685.98 537.28 692.12 535.87
  Q 700.81 533.86 706.96 540.05
  Q 707.73 540.83 707.73 539.73
  Z
  M 692.60 583.62
  Q 692.73 587.34 693.92 590.52
  C 696.20 596.64 703.00 595.23 707.31 592.49
  A 0.92 0.90 -16.7 0 0 707.73 591.73
  L 707.73 548.53
  A 0.77 0.77 0.0 0 0 707.43 547.92
  C 703.91 545.22 696.72 543.08 694.32 548.42
  Q 692.70 552.02 692.56 555.75
  Q 692.09 568.88 692.60 583.62
  Z"
/>
<rect fill="#6786f2" x="733.61" y="513.23" width="12.42" height="13.02" rx="0.26"/>
<path fill="#69a0f3" d="
  M 377.06 542.05
  C 383.72 534.75 399.02 530.64 403.00 542.89
  Q 403.27 543.70 403.81 543.04
  Q 409.09 536.68 416.73 535.44
  C 427.68 533.65 431.97 541.26 431.96 550.73
  Q 431.93 577.14 431.96 602.96
  Q 431.96 603.64 431.27 603.64
  L 421.19 603.65
  Q 420.49 603.65 420.50 602.95
  Q 420.55 578.45 420.44 549.44
  Q 420.43 545.82 417.80 544.11
  C 413.64 541.40 407.39 545.28 404.51 548.45
  A 1.51 1.46 66.8 0 0 404.13 549.45
  L 404.13 603.00
  A 0.64 0.63 -90.0 0 1 403.50 603.64
  L 393.31 603.65
  Q 392.73 603.65 392.73 603.07
  Q 392.80 576.68 392.69 549.51
  Q 392.68 545.87 390.09 544.15
  C 385.90 541.38 379.73 545.26 376.76 548.47
  A 1.43 1.42 66.5 0 0 376.38 549.44
  L 376.38 603.33
  A 0.33 0.32 -0.9 0 1 376.06 603.65
  L 365.26 603.65
  A 0.39 0.39 0.0 0 1 364.87 603.26
  L 364.87 536.63
  Q 364.87 536.26 365.24 536.26
  L 375.82 536.26
  Q 376.38 536.26 376.38 536.82
  L 376.37 541.78
  Q 376.37 542.80 377.06 542.05
  Z"
/>
<path fill="#69a0f3" d="
  M 455.35 570.85
  Q 455.32 578.88 455.47 586.29
  C 455.56 590.79 457.20 595.15 462.49 595.41
  C 470.50 595.80 470.01 586.42 469.69 580.88
  Q 469.65 580.26 470.27 580.26
  L 481.22 580.27
  Q 481.76 580.27 481.78 580.81
  C 482.33 596.67 476.10 606.15 459.17 604.39
  C 446.48 603.07 443.36 592.83 443.07 582.03
  Q 442.76 570.37 443.06 558.15
  C 443.47 541.07 451.41 533.17 468.41 535.84
  C 478.81 537.48 481.04 547.20 481.62 556.05
  Q 482.05 562.66 481.99 569.69
  Q 481.98 570.20 481.48 570.20
  L 456.01 570.20
  Q 455.35 570.20 455.35 570.85
  Z
  M 455.65 563.43
  L 469.39 563.55
  A 0.24 0.24 0.0 0 0 469.63 563.31
  L 469.72 552.92
  A 8.33 6.08 -89.5 0 0 463.71 544.54
  L 461.65 544.52
  A 8.33 6.08 -89.5 0 0 455.50 552.80
  L 455.41 563.19
  A 0.24 0.24 0.0 0 0 455.65 563.43
  Z"
/>
<path fill="#69a0f3" d="
  M 641.72 603.20
  C 633.02 600.10 630.67 590.27 630.54 581.73
  Q 630.35 568.82 630.62 557.00
  C 630.94 542.65 637.80 534.35 652.77 535.48
  C 666.67 536.54 669.67 548.11 669.75 559.80
  Q 669.83 571.78 669.65 582.44
  C 669.50 591.45 666.52 601.36 656.94 603.73
  Q 648.84 605.73 641.72 603.20
  Z
  M 657.19 555.04
  C 657.12 550.31 656.45 544.61 650.31 544.51
  C 644.17 544.41 643.11 549.86 643.02 554.75
  Q 642.78 567.66 643.05 585.25
  C 643.12 590.18 644.04 595.48 650.35 595.44
  C 655.08 595.41 656.98 591.59 657.08 587.38
  Q 657.45 571.70 657.19 555.04
  Z"
/>
<path fill="#6786f2" d="
  M 772.59 542.48
  C 777.43 537.97 783.79 534.51 790.55 535.58
  C 796.63 536.54 798.46 543.25 798.48 548.67
  Q 798.58 574.80 798.50 602.99
  Q 798.50 603.65 797.83 603.65
  L 786.72 603.65
  Q 786.07 603.65 786.07 603.00
  Q 786.07 576.87 786.04 551.57
  C 786.03 541.51 776.74 545.35 772.33 549.03
  Q 771.98 549.32 771.98 549.78
  L 771.98 602.96
  A 0.69 0.69 0.0 0 1 771.29 603.65
  L 760.20 603.65
  Q 759.49 603.65 759.49 602.95
  L 759.49 536.76
  Q 759.49 536.26 759.99 536.26
  L 771.50 536.26
  A 0.49 0.49 0.0 0 1 771.99 536.75
  L 771.97 542.21
  Q 771.97 543.06 772.59 542.48
  Z"
/>
<path fill="#6786f2" d="
  M 815.87 598.72
  Q 809.93 596.63 809.92 591.19
  C 809.92 586.41 813.64 582.90 816.90 579.92
  Q 817.41 579.45 816.87 579.01
  C 810.34 573.68 809.28 565.65 809.56 557.57
  C 810.07 543.03 817.08 533.08 833.70 535.91
  Q 838.90 536.80 842.14 542.26
  Q 842.44 542.78 842.84 542.33
  Q 847.15 537.45 853.14 535.16
  Q 853.38 535.07 853.48 535.31
  L 856.40 542.73
  A 0.24 0.24 0.0 0 1 856.24 543.04
  Q 851.17 544.31 845.82 546.79
  A 0.94 0.93 -20.7 0 0 845.31 547.90
  C 848.12 557.79 848.53 572.54 840.39 579.41
  C 835.73 583.34 828.33 583.65 822.71 582.28
  A 0.73 0.72 25.7 0 0 821.95 582.54
  Q 820.14 584.92 819.86 587.50
  Q 819.80 588.11 820.23 588.53
  Q 821.83 590.12 824.13 590.28
  Q 831.98 590.82 839.04 591.86
  Q 844.77 592.71 848.17 596.63
  C 852.13 601.20 852.54 610.15 849.97 615.34
  Q 847.09 621.16 839.87 623.12
  C 832.04 625.23 817.43 625.78 810.41 619.95
  C 805.41 615.80 805.67 608.27 810.06 603.57
  Q 812.64 600.80 815.90 599.24
  Q 816.51 598.94 815.87 598.72
  Z
  M 827.16 544.10
  Q 822.26 544.79 821.22 550.09
  Q 819.50 558.77 821.03 567.30
  Q 822.22 573.91 828.17 574.29
  C 835.27 574.74 836.17 568.58 836.49 563.28
  Q 836.89 556.44 835.92 550.53
  Q 834.69 543.03 827.16 544.10
  Z
  M 837.45 602.07
  C 832.99 601.03 828.04 601.11 822.86 600.34
  Q 822.40 600.28 822.04 600.58
  Q 818.63 603.51 817.72 606.22
  C 814.86 614.78 825.09 614.97 830.70 614.79
  C 835.08 614.65 841.53 614.00 841.99 608.71
  Q 842.47 603.25 837.45 602.07
  Z"
/>
<rect fill="#6786f2" x="733.61" y="536.27" width="12.42" height="67.38" rx="0.34"/>
<path fill="#69a0f3" d="
  M 632.59 667.03
  C 635.45 662.92 628.87 659.62 625.99 657.89
  C 621.19 655.00 619.99 648.71 624.22 644.70
  C 628.36 640.79 634.53 640.92 639.58 642.98
  Q 639.85 643.09 639.75 643.36
  L 638.33 647.63
  A 0.28 0.28 0.0 0 1 637.89 647.77
  Q 632.91 643.94 628.56 646.19
  C 625.65 647.69 625.55 651.45 628.30 653.27
  Q 631.24 655.23 634.14 657.20
  C 641.13 661.97 638.19 670.67 630.76 672.83
  Q 625.23 674.44 618.62 671.40
  A 0.35 0.34 -70.4 0 1 618.43 670.99
  L 619.59 666.67
  Q 619.71 666.22 620.09 666.49
  Q 628.65 672.71 632.59 667.03
  Z"
/>
<path fill="#6bb5f3" d="
  M 261.71 656.80
  L 270.71 642.11
  Q 270.91 641.80 271.27 641.80
  L 275.48 641.80
  A 0.13 0.13 0.0 0 1 275.59 642.00
  Q 270.05 650.87 264.00 660.01
  Q 262.60 662.13 262.42 664.33
  Q 262.06 668.49 261.60 672.74
  Q 261.57 673.03 261.28 673.03
  L 257.02 673.01
  Q 256.79 673.01 256.83 672.78
  Q 257.51 668.52 258.24 664.26
  Q 258.59 662.19 257.87 660.16
  Q 254.54 650.83 251.59 642.02
  Q 251.52 641.80 251.75 641.80
  L 255.95 641.80
  Q 256.17 641.80 256.24 642.01
  L 260.95 656.71
  A 0.42 0.42 0.0 0 0 261.71 656.80
  Z"
/>
<path fill="#69a0f3" d="
  M 395.21 641.80
  L 398.58 641.80
  A 0.33 0.33 0.0 0 1 398.88 642.27
  L 384.94 672.84
  A 0.33 0.33 0.0 0 1 384.64 673.03
  L 380.19 673.01
  A 0.33 0.33 0.0 0 1 379.87 672.74
  L 376.83 656.31
  A 0.33 0.33 0.0 0 0 376.21 656.23
  L 368.85 672.82
  A 0.33 0.33 0.0 0 1 368.55 673.02
  L 364.01 673.02
  A 0.33 0.33 0.0 0 1 363.68 672.74
  L 358.69 642.17
  A 0.33 0.33 0.0 0 1 359.02 641.79
  L 362.62 641.80
  A 0.33 0.33 0.0 0 1 362.94 642.08
  L 366.95 667.55
  A 0.33 0.33 0.0 0 0 367.57 667.64
  L 375.52 649.69
  A 0.33 0.33 0.0 0 0 375.54 649.50
  L 374.21 642.18
  A 0.33 0.33 0.0 0 1 374.54 641.79
  L 378.43 641.81
  A 0.33 0.33 0.0 0 1 378.76 642.09
  L 382.95 667.63
  A 0.33 0.33 0.0 0 0 383.58 667.71
  L 394.90 642.00
  A 0.33 0.33 0.0 0 1 395.21 641.80
  Z"
/>
<path fill="#69a0f3" d="
  M 455.07 645.52
  L 450.58 645.65
  Q 449.99 645.67 450.09 645.08
  L 450.57 642.43
  Q 450.68 641.80 451.32 641.80
  L 460.57 641.80
  Q 461.20 641.80 461.11 642.43
  Q 459.19 655.13 457.73 667.41
  C 457.07 672.99 452.91 675.91 448.10 677.91
  Q 447.83 678.02 447.71 677.76
  L 446.49 675.28
  A 0.31 0.31 0.0 0 1 446.63 674.87
  C 449.93 673.09 452.97 671.14 453.47 667.04
  Q 454.76 656.44 455.81 646.31
  Q 455.90 645.49 455.07 645.52
  Z"
/>
<path fill="#6786f2" d="
  M 760.57 659.51
  L 759.24 672.74
  A 0.31 0.31 0.0 0 1 758.93 673.02
  L 754.99 673.02
  A 0.31 0.31 0.0 0 1 754.68 672.67
  L 758.40 642.07
  A 0.31 0.31 0.0 0 1 758.70 641.80
  L 762.77 641.80
  A 0.31 0.31 0.0 0 1 763.08 642.15
  L 761.34 654.88
  A 0.31 0.31 0.0 0 0 761.65 655.23
  L 775.63 655.22
  A 0.31 0.31 0.0 0 0 775.94 654.94
  L 777.38 642.08
  A 0.31 0.31 0.0 0 1 777.69 641.80
  L 781.80 641.80
  A 0.31 0.31 0.0 0 1 782.10 642.15
  L 778.15 672.75
  A 0.31 0.31 0.0 0 1 777.85 673.02
  L 773.97 673.01
  A 0.31 0.31 0.0 0 1 773.66 672.66
  L 775.51 659.59
  A 0.31 0.31 0.0 0 0 775.20 659.24
  L 760.88 659.23
  A 0.31 0.31 0.0 0 0 760.57 659.51
  Z"
/>
<path fill="#6bb5f3" d="
  M 274.28 659.05
  C 275.59 651.78 281.13 647.84 288.54 648.52
  C 293.42 648.97 296.18 652.20 296.64 656.95
  C 297.54 666.43 292.01 674.72 281.61 673.15
  C 274.43 672.06 273.19 665.09 274.28 659.05
  Z
  M 278.59 660.53
  C 278.34 663.64 278.39 668.62 282.13 669.48
  C 290.93 671.50 292.75 663.30 291.93 656.76
  Q 291.37 652.30 286.97 652.10
  Q 279.30 651.76 278.59 660.53
  Z"
/>
<path fill="#69a0f3" d="
  M 486.08 665.11
  Q 482.56 674.25 472.29 673.17
  C 465.26 672.43 463.53 665.45 464.61 659.61
  Q 466.83 647.64 479.05 648.58
  C 487.54 649.23 488.45 658.98 486.08 665.11
  Z
  M 482.39 661.93
  C 482.83 658.12 482.84 652.49 477.67 652.13
  C 469.50 651.56 468.24 659.16 469.20 665.33
  Q 469.82 669.39 473.57 669.71
  Q 481.40 670.39 482.39 661.93
  Z"
/>
<path fill="#69a0f3" d="
  M 544.99 673.03
  L 541.85 673.01
  A 0.33 0.33 0.0 0 1 541.53 672.64
  L 544.44 649.02
  A 0.33 0.33 0.0 0 1 544.77 648.73
  L 548.86 648.71
  A 0.33 0.33 0.0 0 1 549.15 648.89
  L 558.06 665.83
  A 0.33 0.33 0.0 0 0 558.68 665.71
  L 560.64 649.14
  A 0.33 0.33 0.0 0 1 560.95 648.85
  L 564.23 648.66
  A 0.33 0.33 0.0 0 1 564.58 649.04
  L 561.41 672.73
  A 0.33 0.33 0.0 0 1 561.08 673.02
  L 557.06 673.02
  A 0.33 0.33 0.0 0 1 556.77 672.84
  L 547.93 655.90
  A 0.33 0.33 0.0 0 0 547.31 656.01
  L 545.31 672.74
  A 0.33 0.33 0.0 0 1 544.99 673.03
  Z"
/>
<path fill="#6786f2" d="
  M 736.58 668.78
  C 740.62 665.23 733.07 662.40 731.02 661.27
  C 727.90 659.55 727.08 655.66 728.93 652.69
  C 731.83 648.03 737.64 647.78 742.40 649.32
  Q 743.19 649.58 742.98 650.38
  L 742.19 653.32
  Q 741.91 654.38 741.03 653.73
  Q 735.73 649.84 732.81 653.76
  C 731.58 655.43 733.06 657.30 734.63 658.02
  C 738.53 659.81 743.28 661.87 741.80 667.24
  C 739.89 674.13 731.79 674.25 726.14 672.01
  Q 725.59 671.79 725.72 671.21
  L 726.61 667.47
  Q 726.80 666.67 727.39 667.24
  C 729.84 669.58 733.85 671.19 736.58 668.78
  Z"
/>
<path fill="#6bb5f3" d="
  M 316.64 664.31
  Q 317.48 656.88 318.34 649.07
  Q 318.38 648.73 318.72 648.72
  L 322.45 648.72
  Q 322.80 648.72 322.75 649.06
  Q 321.66 657.76 320.52 665.49
  C 320.10 668.30 318.35 670.96 315.72 672.16
  C 309.75 674.89 300.10 673.50 301.42 664.47
  Q 302.61 656.36 303.27 649.15
  Q 303.31 648.72 303.74 648.72
  L 307.44 648.72
  Q 307.81 648.72 307.75 649.08
  Q 306.57 657.00 305.59 664.23
  C 304.56 671.79 315.84 671.38 316.64 664.31
  Z"
/>
<path fill="#6bb5f3" d="
  M 340.58 663.98
  L 345.13 671.61
  Q 345.65 672.49 344.65 672.69
  L 341.59 673.32
  Q 340.61 673.53 340.19 672.61
  L 336.79 664.98
  A 0.88 0.87 77.1 0 0 335.98 664.47
  L 333.05 664.52
  Q 332.37 664.53 332.30 665.20
  L 331.49 672.78
  A 0.27 0.26 -85.3 0 1 331.22 673.02
  L 327.36 673.01
  Q 327.22 673.01 327.24 672.88
  L 330.14 649.24
  Q 330.21 648.66 330.79 648.69
  C 335.20 648.88 344.91 647.06 345.90 653.71
  C 346.50 657.75 344.49 661.07 340.89 662.90
  Q 340.16 663.27 340.58 663.98
  Z
  M 332.97 660.24
  Q 332.84 661.16 333.76 661.05
  C 335.14 660.89 336.35 661.37 337.71 660.87
  C 340.65 659.77 342.46 656.53 340.87 653.60
  Q 340.51 652.94 339.80 652.69
  Q 337.32 651.83 334.61 652.18
  Q 334.08 652.25 334.00 652.78
  L 332.97 660.24
  Z"
/>
<path fill="#69a0f3" d="
  M 406.44 652.49
  L 405.59 658.52
  A 0.33 0.33 0.0 0 0 405.92 658.90
  L 414.03 658.80
  A 0.33 0.33 0.0 0 1 414.36 659.20
  L 413.74 662.22
  A 0.33 0.33 0.0 0 1 413.42 662.49
  L 405.36 662.35
  A 0.33 0.33 0.0 0 0 405.02 662.65
  L 404.24 669.17
  A 0.33 0.33 0.0 0 0 404.57 669.54
  L 414.83 669.37
  A 0.33 0.33 0.0 0 1 415.16 669.77
  L 414.51 672.76
  A 0.33 0.33 0.0 0 1 414.18 673.02
  L 400.01 673.02
  A 0.33 0.33 0.0 0 1 399.68 672.65
  L 402.54 649.01
  A 0.33 0.33 0.0 0 1 402.87 648.72
  L 417.51 648.72
  A 0.33 0.33 0.0 0 1 417.83 649.12
  L 417.17 652.13
  A 0.33 0.33 0.0 0 1 416.84 652.39
  L 406.77 652.21
  A 0.33 0.33 0.0 0 0 406.44 652.49
  Z"
/>
<path fill="#69a0f3" d="
  M 434.92 660.84
  C 439.22 662.18 439.43 667.25 436.85 670.13
  C 433.53 673.84 425.51 673.36 420.91 672.97
  Q 420.51 672.94 420.55 672.53
  L 423.36 649.24
  Q 423.43 648.66 424.01 648.69
  C 427.12 648.82 430.27 648.53 433.36 648.87
  C 440.13 649.60 440.02 657.24 434.84 660.04
  Q 433.93 660.53 434.92 660.84
  Z
  M 426.42 658.54
  Q 426.36 659.00 426.83 659.00
  Q 428.27 658.99 429.75 659.06
  C 432.72 659.19 434.46 656.47 433.77 653.67
  Q 433.59 652.91 432.86 652.62
  Q 430.67 651.75 427.83 652.04
  Q 427.26 652.10 427.19 652.68
  L 426.42 658.54
  Z
  M 425.49 662.46
  L 425.31 669.42
  A 0.30 0.30 0.0 0 0 425.60 669.72
  L 429.24 669.82
  A 4.60 3.62 1.5 0 0 433.93 666.32
  L 433.94 666.00
  A 4.60 3.62 1.5 0 0 429.44 662.26
  L 425.80 662.17
  A 0.30 0.30 0.0 0 0 425.49 662.46
  Z"
/>
<path fill="#69a0f3" d="
  M 496.00 664.00
  C 495.52 667.38 496.98 669.62 500.72 669.65
  C 505.51 669.69 506.93 666.72 507.30 662.52
  Q 507.88 655.81 508.81 648.91
  Q 508.83 648.72 509.02 648.72
  L 513.00 648.73
  Q 513.18 648.73 513.16 648.90
  Q 512.05 658.34 510.76 666.22
  C 509.21 675.64 490.41 676.40 491.81 665.18
  Q 492.79 657.35 493.74 648.95
  Q 493.76 648.72 493.99 648.72
  L 497.96 648.73
  Q 498.19 648.73 498.16 648.96
  Q 497.06 656.50 496.00 664.00
  Z"
/>
<path fill="#69a0f3" d="
  M 522.73 665.11
  L 521.90 672.81
  Q 521.88 673.00 521.69 673.00
  L 517.83 673.03
  Q 517.64 673.03 517.66 672.85
  L 520.55 649.22
  Q 520.61 648.76 521.07 648.75
  Q 525.57 648.59 529.58 648.78
  C 539.08 649.24 537.95 659.40 531.17 662.96
  Q 530.59 663.27 530.92 663.83
  L 535.53 671.60
  Q 536.05 672.47 535.05 672.69
  L 532.07 673.32
  Q 531.02 673.54 530.58 672.56
  L 527.24 665.07
  Q 526.97 664.47 526.32 664.48
  L 523.39 664.52
  Q 522.79 664.53 522.73 665.11
  Z
  M 524.42 652.75
  L 523.37 660.33
  Q 523.30 660.86 523.83 660.95
  Q 530.27 661.96 531.65 657.10
  Q 532.12 655.48 531.41 653.86
  Q 531.04 652.98 530.14 652.66
  Q 527.88 651.85 525.00 652.19
  A 0.67 0.65 0.5 0 0 524.42 652.75
  Z"
/>
<path fill="#69a0f3" d="
  M 574.77 669.53
  L 585.02 669.37
  A 0.33 0.33 0.0 0 1 585.35 669.77
  L 584.70 672.76
  A 0.33 0.33 0.0 0 1 584.37 673.02
  L 570.20 673.02
  A 0.33 0.33 0.0 0 1 569.87 672.65
  L 572.73 649.01
  A 0.33 0.33 0.0 0 1 573.06 648.72
  L 587.71 648.72
  A 0.33 0.33 0.0 0 1 588.04 649.12
  L 587.34 652.12
  A 0.33 0.33 0.0 0 1 587.01 652.38
  L 576.95 652.20
  A 0.33 0.33 0.0 0 0 576.62 652.49
  L 575.76 658.52
  A 0.33 0.33 0.0 0 0 576.09 658.90
  L 584.23 658.80
  A 0.33 0.33 0.0 0 1 584.56 659.20
  L 583.94 662.21
  A 0.33 0.33 0.0 0 1 583.61 662.48
  L 575.55 662.35
  A 0.33 0.33 0.0 0 0 575.21 662.65
  L 574.43 669.16
  A 0.33 0.33 0.0 0 0 574.77 669.53
  Z"
/>
<path fill="#69a0f3" d="
  M 599.71 659.87
  L 606.98 648.88
  Q 607.09 648.72 607.28 648.72
  L 611.27 648.74
  A 0.11 0.10 16.7 0 1 611.36 648.90
  L 601.10 664.18
  A 3.63 3.54 -25.4 0 0 600.52 665.75
  L 599.80 672.52
  Q 599.74 673.02 599.24 673.02
  L 595.77 673.02
  Q 595.43 673.02 595.48 672.69
  C 595.91 669.69 597.15 665.79 595.99 662.87
  Q 593.29 656.06 590.72 648.91
  A 0.13 0.12 -9.7 0 1 590.84 648.75
  L 594.96 648.71
  A 0.27 0.27 0.0 0 1 595.22 648.90
  L 599.05 659.79
  A 0.37 0.37 0.0 0 0 599.71 659.87
  Z"
/>
<path fill="#69a0f3" d="
  M 642.05 652.26
  L 642.66 648.99
  A 0.33 0.33 0.0 0 1 642.98 648.72
  L 660.06 648.72
  A 0.33 0.33 0.0 0 1 660.39 649.12
  L 659.72 652.36
  A 0.33 0.33 0.0 0 1 659.38 652.62
  L 653.41 652.31
  A 0.33 0.33 0.0 0 0 653.06 652.59
  L 650.55 672.72
  A 0.33 0.33 0.0 0 1 650.22 673.01
  L 646.73 673.02
  A 0.33 0.33 0.0 0 1 646.40 672.65
  L 648.95 652.66
  A 0.33 0.33 0.0 0 0 648.60 652.29
  L 642.39 652.65
  A 0.33 0.33 0.0 0 1 642.05 652.26
  Z"
/>
<path fill="#69a0f3" d="
  M 663.90 667.46
  L 661.72 672.81
  A 0.33 0.33 0.0 0 1 661.42 673.02
  L 657.94 673.02
  A 0.33 0.33 0.0 0 1 657.64 672.55
  L 669.10 648.90
  A 0.33 0.33 0.0 0 1 669.40 648.71
  L 674.09 648.73
  A 0.33 0.33 0.0 0 1 674.41 648.99
  L 679.13 672.62
  A 0.33 0.33 0.0 0 1 678.81 673.01
  L 675.15 673.03
  A 0.33 0.33 0.0 0 1 674.83 672.74
  L 674.21 667.54
  A 0.33 0.33 0.0 0 0 673.89 667.25
  L 664.20 667.25
  A 0.33 0.33 0.0 0 0 663.90 667.46
  Z
  M 665.99 663.32
  A 0.30 0.30 0.0 0 0 666.27 663.75
  L 673.03 663.75
  A 0.30 0.30 0.0 0 0 673.32 663.39
  L 671.37 653.31
  A 0.30 0.30 0.0 0 0 670.81 653.24
  L 665.99 663.32
  Z"
/>
<path fill="#6786f2" d="
  M 689.93 665.25
  L 689.12 672.82
  Q 689.10 673.01 688.92 673.01
  L 685.06 673.03
  Q 684.85 673.03 684.88 672.82
  L 687.77 649.23
  Q 687.82 648.82 688.24 648.79
  Q 694.51 648.36 698.19 648.97
  Q 703.37 649.84 703.69 654.38
  Q 704.08 659.82 698.37 663.01
  Q 697.83 663.31 698.15 663.84
  L 702.73 671.56
  Q 703.28 672.49 702.23 672.71
  L 699.30 673.32
  A 1.37 1.35 71.9 0 1 697.79 672.54
  L 694.40 664.94
  Q 694.19 664.47 693.67 664.48
  L 690.74 664.52
  Q 690.01 664.53 689.93 665.25
  Z
  M 690.61 660.25
  Q 690.49 661.13 691.38 661.05
  C 692.73 660.92 694.06 661.37 695.37 660.86
  Q 699.20 659.37 699.02 655.30
  C 698.87 651.91 694.94 651.98 692.53 652.12
  Q 691.71 652.17 691.59 653.00
  L 690.61 660.25
  Z"
/>
<path fill="#6786f2" d="
  M 707.01 652.26
  L 707.67 648.99
  A 0.33 0.33 0.0 0 1 707.99 648.72
  L 725.06 648.72
  A 0.33 0.33 0.0 0 1 725.38 649.12
  L 724.72 652.37
  A 0.33 0.33 0.0 0 1 724.38 652.63
  L 718.41 652.31
  A 0.33 0.33 0.0 0 0 718.06 652.60
  L 715.54 672.73
  A 0.33 0.33 0.0 0 1 715.21 673.02
  L 711.72 673.02
  A 0.33 0.33 0.0 0 1 711.40 672.65
  L 713.94 652.66
  A 0.33 0.33 0.0 0 0 713.59 652.29
  L 707.36 652.66
  A 0.33 0.33 0.0 0 1 707.01 652.26
  Z"
/>
<path fill="#6786f2" d="
  M 793.42 652.49
  L 792.59 658.51
  A 0.33 0.33 0.0 0 0 792.92 658.89
  L 801.03 658.80
  A 0.33 0.33 0.0 0 1 801.36 659.20
  L 800.73 662.22
  A 0.33 0.33 0.0 0 1 800.40 662.49
  L 792.36 662.35
  A 0.33 0.33 0.0 0 0 792.02 662.64
  L 791.23 669.17
  A 0.33 0.33 0.0 0 0 791.56 669.54
  L 801.84 669.36
  A 0.33 0.33 0.0 0 1 802.17 669.76
  L 801.50 672.76
  A 0.33 0.33 0.0 0 1 801.18 673.02
  L 787.00 673.02
  A 0.33 0.33 0.0 0 1 786.67 672.65
  L 789.52 649.01
  A 0.33 0.33 0.0 0 1 789.85 648.72
  L 804.49 648.72
  A 0.33 0.33 0.0 0 1 804.81 649.12
  L 804.17 652.12
  A 0.33 0.33 0.0 0 1 803.84 652.39
  L 793.75 652.21
  A 0.33 0.33 0.0 0 0 793.42 652.49
  Z"
/>
<path fill="#6786f2" d="
  M 812.59 665.07
  L 811.76 672.77
  A 0.28 0.28 0.0 0 1 811.48 673.02
  L 807.62 673.01
  Q 807.49 673.01 807.51 672.89
  L 810.41 649.22
  Q 810.47 648.76 810.94 648.74
  Q 816.21 648.60 820.52 648.85
  C 823.11 649.00 825.62 650.85 826.13 653.50
  C 826.92 657.63 824.70 661.20 821.02 662.95
  Q 820.42 663.24 820.76 663.81
  L 825.41 671.64
  Q 825.90 672.45 824.97 672.66
  L 822.01 673.32
  Q 820.89 673.56 820.42 672.51
  L 817.06 664.99
  Q 816.83 664.46 816.25 664.47
  L 813.19 664.52
  Q 812.64 664.53 812.59 665.07
  Z
  M 821.55 656.73
  C 822.39 651.86 818.48 652.24 815.07 652.10
  Q 814.37 652.08 814.28 652.76
  L 813.23 660.30
  Q 813.15 660.87 813.72 660.96
  C 817.22 661.50 820.85 660.77 821.55 656.73
  Z"
/>
<path fill="#6786f2" d="
  M 836.29 669.53
  L 846.54 669.37
  A 0.33 0.33 0.0 0 1 846.86 669.76
  L 846.24 672.76
  A 0.33 0.33 0.0 0 1 845.91 673.02
  L 831.72 673.02
  A 0.33 0.33 0.0 0 1 831.39 672.65
  L 834.24 649.01
  A 0.33 0.33 0.0 0 1 834.57 648.72
  L 849.21 648.72
  A 0.33 0.33 0.0 0 1 849.53 649.12
  L 848.87 652.12
  A 0.33 0.33 0.0 0 1 848.54 652.38
  L 838.49 652.20
  A 0.33 0.33 0.0 0 0 838.16 652.49
  L 837.29 658.52
  A 0.33 0.33 0.0 0 0 837.62 658.90
  L 845.75 658.80
  A 0.33 0.33 0.0 0 1 846.08 659.20
  L 845.45 662.21
  A 0.33 0.33 0.0 0 1 845.12 662.48
  L 837.07 662.36
  A 0.33 0.33 0.0 0 0 836.73 662.65
  L 835.95 669.16
  A 0.33 0.33 0.0 0 0 836.29 669.53
  Z"
/>
<circle fill="#6786f2" cx="853.93" cy="670.63" r="2.62"/>
<path fill="#6edcf5" d="
  M 110.74 930.87
  Q 111.47 932.35 110.98 935.00
  L 13.81 935.00
  L 166.64 670.27
  Q 167.33 669.07 167.35 670.46
  C 167.38 673.25 167.96 677.04 166.51 679.54
  Q 93.87 805.34 21.82 930.16
  Q 21.40 930.87 22.23 930.87
  L 110.74 930.87
  Z"
/>
<path fill="#645af0" d="
  M 1094.20 935.00
  L 933.88 935.00
  L 933.88 934.31
  Q 933.88 934.11 933.70 934.20
  Q 933.38 934.35 933.37 934.00
  Q 933.36 933.63 933.72 933.63
  L 935.44 933.63
  Q 936.02 933.63 935.90 933.06
  L 935.57 931.49
  Q 935.47 931.02 934.98 931.01
  L 928.46 930.88
  L 1085.95 930.87
  A 0.38 0.38 0.0 0 0 1086.28 930.30
  L 941.12 678.89
  A 3.83 3.82 30.3 0 1 940.62 677.00
  L 940.63 670.72
  Q 940.64 668.99 941.50 670.49
  L 1094.20 935.00
  Z"
/>
<path fill="#6bb5f3" d="
  M 110.74 930.87
  L 378.45 930.88
  L 383.37 931.25
  Q 383.90 931.29 384.06 931.80
  Q 384.48 933.18 383.62 934.13
  Q 383.19 934.62 383.84 934.58
  Q 384.81 934.53 385.00 935.00
  L 110.98 935.00
  Q 111.47 932.35 110.74 930.87
  Z"
/>
<path fill="#69a0f3" d="
  M 378.45 930.88
  L 620.71 930.88
  L 639.60 931.02
  Q 640.10 931.03 640.43 931.40
  Q 641.02 932.09 640.92 933.07
  Q 640.86 933.72 640.22 933.62
  Q 639.94 933.58 639.67 933.71
  Q 639.15 933.96 639.65 934.24
  Q 641.02 935.02 642.88 935.00
  L 385.00 935.00
  Q 384.81 934.53 383.84 934.58
  Q 383.19 934.62 383.62 934.13
  Q 384.48 933.18 384.06 931.80
  Q 383.90 931.29 383.37 931.25
  L 378.45 930.88
  Z"
/>
<path fill="#6786f2" d="
  M 620.71 930.88
  L 928.46 930.88
  L 934.98 931.01
  Q 935.47 931.02 935.57 931.49
  L 935.90 933.06
  Q 936.02 933.63 935.44 933.63
  L 933.72 933.63
  Q 933.36 933.63 933.37 934.00
  Q 933.38 934.35 933.70 934.20
  Q 933.88 934.11 933.88 934.31
  L 933.88 935.00
  L 642.88 935.00
  Q 641.02 935.02 639.65 934.24
  Q 639.15 933.96 639.67 933.71
  Q 639.94 933.58 640.22 933.62
  Q 640.86 933.72 640.92 933.07
  Q 641.02 932.09 640.43 931.40
  Q 640.10 931.03 639.60 931.02
  L 620.71 930.88
  Z"
/>
</svg>
